<svg xmlns="http://www.w3.org/2000/svg" width="67.789" height="50.486" viewBox="0 0 67.789 50.486">
  <path id="check_circle_FILL1_wght600_GRAD0_opsz24" d="M30.1,37.7,18.67,26.273A7.439,7.439,0,0,0,13.2,24.05a8.241,8.241,0,0,0-5.8,2.381,7.632,7.632,0,0,0-2.222,5.632A7.64,7.64,0,0,0,7.4,37.7L24.226,54.53A7.981,7.981,0,0,0,30.1,56.911a7.981,7.981,0,0,0,5.874-2.381L70.739,19.764a7.439,7.439,0,0,0,2.222-5.474A7.707,7.707,0,0,0,70.58,8.652,8.081,8.081,0,0,0,64.865,6.43a7.538,7.538,0,0,0-5.556,2.222Z" transform="translate(-5.174 -6.427)" fill="#fff"/>
</svg>
