<svg xmlns="http://www.w3.org/2000/svg" width="38.605" height="38.636" viewBox="0 0 38.605 38.636">
  <path id="close_FILL1_wght600_GRAD0_opsz24" d="M24.391,29.563l-13.07,13.07a3.514,3.514,0,0,1-2.586,1.048A3.657,3.657,0,0,1,6.149,37.46l13.07-13.07L6.148,11.321A3.514,3.514,0,0,1,5.1,8.734,3.581,3.581,0,0,1,8.734,5.1,3.514,3.514,0,0,1,11.32,6.148l13.07,13.07L37.46,6.148a3.635,3.635,0,0,1,6.221,2.586,3.514,3.514,0,0,1-1.048,2.586L29.563,24.39l13.07,13.07a3.657,3.657,0,1,1-5.172,5.172Z" transform="translate(-5.099 -5.067)" fill="#fff"/>
</svg>
