<svg xmlns="http://www.w3.org/2000/svg" xmlns:xlink="http://www.w3.org/1999/xlink" width="59" height="86" viewBox="0 0 59 86">
  <defs>
    <clipPath id="clip-path">
      <path id="Path_11622" data-name="Path 11622" d="M-606.654,855.752l1.655-4.025,0-.005h0l13.877-33.763,1.242-3.021,2.109-5.131.08-.2,4.1-9.986a4.226,4.226,0,0,1,3.9-2.623h.77a4.222,4.222,0,0,1,3.9,2.623l4.1,9.985.107.259,2.105,5.125,1.221,2.969L-554.725,849h0l5.108,12.243.03.005V775.968h-59v84.58l1.886-4.638C-606.681,855.858-606.675,855.8-606.654,855.752Z" transform="translate(608.587 -775.968)" fill="#b60c0c"/>
    </clipPath>
  </defs>
  <g id="Group_6299" data-name="Group 6299" transform="translate(-338.97 -34.968)">
    <g id="Group_5408" data-name="Group 5408" transform="translate(338.97 34.968)">
      <g id="Group_5407" data-name="Group 5407" transform="translate(1.579 21.03)">
        <path id="Path_11618" data-name="Path 11618" d="M4626.061,2911.546l-1.221-2.969-2.105-5.123-.107-.259-4.1-9.985a4.221,4.221,0,0,0-3.9-2.623h-.77a4.225,4.225,0,0,0-3.9,2.623l-4.1,9.985-.08.2-2.109,5.131-1.242,3.02-15.533,37.792a4.487,4.487,0,0,0,4.143,6.2h0a4.468,4.468,0,0,0,4.113-2.768l15.707-38.078,1.254-3.04h0a2.313,2.313,0,0,1,4.281,0l0,.013,1.248,3.027,15.707,38.078a4.466,4.466,0,0,0,4.113,2.768h0a4.485,4.485,0,0,0,4.141-6.2Z" transform="translate(-4586.54 -2890.587)" fill="#180b2d"/>
      </g>
      <path id="Path_11619" data-name="Path 11619" d="M4631.417,2979.245l-7.389,17.912a2.07,2.07,0,0,0,1.9,2.866h14.775a2.072,2.072,0,0,0,1.906-2.866l-7.389-17.912A2.058,2.058,0,0,0,4631.417,2979.245Z" transform="translate(-4604.045 -2914.024)" fill="#180b2d"/>
      <g id="Group_5528" data-name="Group 5528" transform="translate(0 0)">
        <g id="Mask_Group_551" data-name="Mask Group 551" clip-path="url(#clip-path)">
          <path id="sun" d="M4619.387,2864.929a9.258,9.258,0,0,1,8.586,5.775l7.064,17.221a22.718,22.718,0,1,0-31.3,0l7.064-17.221A9.252,9.252,0,0,1,4619.387,2864.929Z" transform="translate(-4590.14 -2848.56)" fill="#f5891f"/>
        </g>
      </g>
    </g>
  </g>
</svg>
