<svg xmlns="http://www.w3.org/2000/svg" width="49.573" height="35.119" viewBox="0 0 49.573 35.119">
  <path id="visibility_FILL1_wght600_GRAD0_opsz24" d="M25.566,31.047a9.893,9.893,0,1,0-7.045-2.9,9.893,9.893,0,0,0,7.045,2.9Zm0-4.638a5.278,5.278,0,1,1,3.754-1.546,5.278,5.278,0,0,1-3.754,1.546Zm0,12.258a25.946,25.946,0,0,1-14.437-4.251A27.584,27.584,0,0,1,1.161,23.1a2.673,2.673,0,0,1-.3-.91,7.149,7.149,0,0,1,0-2.156,2.673,2.673,0,0,1,.3-.91A27.584,27.584,0,0,1,11.129,7.8,25.946,25.946,0,0,1,25.566,3.55,25.956,25.956,0,0,1,40,7.8a27.59,27.59,0,0,1,9.97,11.32,2.673,2.673,0,0,1,.3.91,7.148,7.148,0,0,1,0,2.156,2.673,2.673,0,0,1-.3.91A27.59,27.59,0,0,1,40,34.415a25.956,25.956,0,0,1-14.434,4.251Z" transform="translate(-0.779 -3.549)" fill="#fff"/>
</svg>
