<svg xmlns="http://www.w3.org/2000/svg" width="49.573" height="42.516" viewBox="0 0 49.573 42.516">
  <path id="visibility_off_FILL1_wght600_GRAD0_opsz24" d="M42.682,33l-7.9-7.9a6.239,6.239,0,0,0,.552-1.685,9.712,9.712,0,0,0,.166-1.738,9.893,9.893,0,0,0-9.938-9.939,9.114,9.114,0,0,0-1.738.166,7.211,7.211,0,0,0-1.685.552L15.682,6a23.928,23.928,0,0,1,4.777-1.409,27.8,27.8,0,0,1,5.106-.468A25.993,25.993,0,0,1,40.058,8.347,27.456,27.456,0,0,1,49.97,19.694a2.673,2.673,0,0,1,.3.91,7.006,7.006,0,0,1,.082,1.078,5.228,5.228,0,0,1-.11,1.078,4.877,4.877,0,0,1-.276.91,25.971,25.971,0,0,1-3.147,5.161A23.986,23.986,0,0,1,42.682,33ZM40.694,44.872l-7.012-6.957a21.227,21.227,0,0,1-3.865.994,26.532,26.532,0,0,1-4.251.331,25.865,25.865,0,0,1-14.492-4.251A27.718,27.718,0,0,1,1.161,23.67a2.673,2.673,0,0,1-.3-.91,7.149,7.149,0,0,1,0-2.156,2.14,2.14,0,0,1,.3-.855A24.1,24.1,0,0,1,3.84,15.306a33.809,33.809,0,0,1,3.394-3.838L2.984,7.161a2.307,2.307,0,0,1-.718-1.685,2.4,2.4,0,0,1,.773-1.738,2.28,2.28,0,0,1,1.683-.663,2.473,2.473,0,0,1,1.74.663L44.117,41.449a2.19,2.19,0,0,1,.718,1.683,2.37,2.37,0,0,1-.718,1.74,2.4,2.4,0,0,1-3.423,0ZM25.566,31.621q.442,0,.857-.027a3.033,3.033,0,0,0,.855-.194L15.793,19.97a4.79,4.79,0,0,0-.137.855q-.029.415-.029.857a9.893,9.893,0,0,0,9.938,9.939Zm4.859-10.877L26.67,16.989a3.068,3.068,0,0,1,2.955,1.02,2.989,2.989,0,0,1,.8,2.734Z" transform="translate(-0.779 -3.074)" fill="#fff"/>
</svg>
